<?xml version="1.0" encoding="UTF-8"?>
<svg version="1.1" xmlns="http://www.w3.org/2000/svg" width="616" height="405">
<path d="M0 0 C0.69351563 -0.00386719 1.38703125 -0.00773438 2.1015625 -0.01171875 C7.24833354 -0.00166646 7.24833354 -0.00166646 8.375 1.125 C8.45967492 4.21969337 8.47924608 7.29186993 8.45678711 10.38647461 C8.45372055 11.35876511 8.45065399 12.3310556 8.44749451 13.33280945 C8.44032103 15.45161183 8.43092162 17.57040754 8.41959953 19.68919182 C8.40229012 23.03771783 8.39193612 26.38619666 8.38368225 29.73475647 C8.35915455 39.25803093 8.323595 48.78124191 8.27905273 58.30444336 C8.25233306 64.12161907 8.23524845 69.93875782 8.22418404 75.75598335 C8.21795638 77.97884041 8.20792908 80.20169007 8.19410515 82.42451286 C8.17497966 85.52776702 8.16800553 88.63082589 8.16381836 91.73413086 C8.15505676 92.66044312 8.14629517 93.58675537 8.13726807 94.5411377 C8.13922432 95.80521706 8.13922432 95.80521706 8.14122009 97.09483337 C8.13650649 98.19627135 8.13650649 98.19627135 8.13169765 99.31996059 C8.22332173 101.37752995 8.22332173 101.37752995 10.375 103.125 C13.16716791 103.37069272 15.86740605 103.49863138 18.6640625 103.5390625 C19.48248627 103.55842865 20.30091003 103.5777948 21.14413452 103.5977478 C23.76264976 103.65761082 26.38120881 103.70395532 29 103.75 C30.77345686 103.78817364 32.54689505 103.82722501 34.3203125 103.8671875 C38.67172375 103.96331771 43.02322179 104.04732351 47.375 104.125 C47.375 99.835 47.375 95.545 47.375 91.125 C38.795 91.125 30.215 91.125 21.375 91.125 C21.375 88.815 21.375 86.505 21.375 84.125 C32.265 84.125 43.155 84.125 54.375 84.125 C54.375 93.035 54.375 101.945 54.375 111.125 C33.255 111.125 12.135 111.125 -9.625 111.125 C-9.955 74.825 -10.285 38.525 -10.625 1.125 C-7.03023628 -0.07325457 -3.73950601 -0.02108744 0 0 Z M-1.625 8.125 C-3.30572775 11.4864555 -2.75376829 15.28487468 -2.73852539 18.98095703 C-2.73867142 19.89808472 -2.73881744 20.8152124 -2.7389679 21.76013184 C-2.73826948 24.80104919 -2.7304804 27.8419058 -2.72265625 30.8828125 C-2.72079182 32.98745693 -2.71936803 35.0921018 -2.71836853 37.19674683 C-2.71454535 42.74356275 -2.70471674 48.2903526 -2.69366455 53.8371582 C-2.68344616 59.4942998 -2.67886999 65.15144559 -2.67382812 70.80859375 C-2.66309431 81.91407397 -2.64602026 93.01953482 -2.625 104.125 C0.015 104.125 2.655 104.125 5.375 104.125 C5.045 103.465 4.715 102.805 4.375 102.125 C3.055 102.125 1.735 102.125 0.375 102.125 C0.375 71.105 0.375 40.085 0.375 8.125 C-0.285 8.125 -0.945 8.125 -1.625 8.125 Z " fill="#E7E7E7" transform="translate(237.625,165.875)"/>
<path d="M0 0 C17.16 0 34.32 0 52 0 C50.6389642 4.0831074 49.57255926 7.06381102 47.5390625 10.6796875 C47.06726563 11.52660156 46.59546875 12.37351563 46.109375 13.24609375 C45.61953125 14.11363281 45.1296875 14.98117188 44.625 15.875 C41.27227832 21.85431914 38.0134165 27.84249997 35 34 C31.5699383 40.97782516 27.94894316 47.82051653 24.1875 54.625 C19.91399385 62.40115419 15.80024162 70.22279175 11.9140625 78.19921875 C9.39771443 83.19596705 6.67898408 88.08852919 4 93 C24.13 93 44.26 93 65 93 C65 88.71 65 84.42 65 80 C63.29070312 80.01160156 61.58140625 80.02320313 59.8203125 80.03515625 C57.58854275 80.04453343 55.35677183 80.05363371 53.125 80.0625 C51.43310547 80.07506836 51.43310547 80.07506836 49.70703125 80.08789062 C48.63066406 80.09111328 47.55429687 80.09433594 46.4453125 80.09765625 C45.45031738 80.10289307 44.45532227 80.10812988 43.43017578 80.11352539 C41 80 41 80 39 79 C39.61277612 76.03824877 40.25372522 74.61941217 42 72 C44.98095703 71.65942383 44.98095703 71.65942383 48.7578125 71.70703125 C49.42086395 71.71127609 50.08391541 71.71552094 50.76705933 71.71989441 C52.88678441 71.73670029 55.00556188 71.77435299 57.125 71.8125 C58.56118419 71.82754451 59.99738328 71.84123332 61.43359375 71.85351562 C64.95603764 71.8866091 68.47792636 71.9384032 72 72 C74.95145915 80.85437745 72.37303502 90.67412439 72 100 C32.895 100.495 32.895 100.495 -7 101 C-8 98 -8 98 -6.76953125 94.98046875 C-6.12843928 93.71040344 -5.47505163 92.44650363 -4.8125 91.1875 C-4.46026367 90.50115479 -4.10802734 89.81480957 -3.74511719 89.10766602 C2.0026513 78.00224353 7.93319946 66.94578668 14.2421875 56.1484375 C15.72057413 53.50048277 16.85769317 51.0311148 17.875 48.1875 C19.59047186 43.75253981 21.78142512 39.92717189 24.29296875 35.90234375 C26.76248855 31.70359498 28.88695761 27.34909945 31.02050781 22.97216797 C33.52234011 17.86201513 36.22432935 12.99620718 39 8 C28.77 8 18.54 8 8 8 C8 8.33 8 8.66 8 9 C20.87 9.495 20.87 9.495 34 10 C33 16 33 16 32 18 C21.44 18 10.88 18 0 18 C0 12.06 0 6.12 0 0 Z " fill="#E1E1E1" transform="translate(308,177)"/>
<path d="M0 0 C1.06476563 -0.01224609 2.12953125 -0.02449219 3.2265625 -0.03710938 C19.5687175 -0.06722391 19.5687175 -0.06722391 25.8125 5 C26.42738281 5.48082031 27.04226563 5.96164062 27.67578125 6.45703125 C34.40456815 12.84001326 36.70953649 20.6542554 38 29.6875 C36.87859798 37.53731415 35.04757387 45.31125479 29.5 51.1875 C27.02734375 52.953125 27.02734375 52.953125 24.4375 54.4375 C23.58027344 54.93765625 22.72304688 55.4378125 21.83984375 55.953125 C17.68448163 58.14526929 14.50657377 58.30543264 9.86328125 58.28515625 C8.56455078 58.28193359 7.26582031 58.27871094 5.92773438 58.27539062 C4.55598892 58.26703531 3.18424413 58.25857037 1.8125 58.25 C0.42903805 58.24498335 -0.95442563 58.24042073 -2.33789062 58.23632812 C-5.72530395 58.22452529 -9.11263033 58.20806019 -12.5 58.1875 C-12.52312883 50.77290058 -12.54091785 43.35830889 -12.55181217 35.94368076 C-12.55703982 32.50109652 -12.56413531 29.05853688 -12.57543945 25.6159668 C-12.58834235 21.66194957 -12.59322918 17.70794244 -12.59765625 13.75390625 C-12.60281754 12.51226212 -12.60797882 11.27061798 -12.61329651 9.99134827 C-12.61337204 8.85024094 -12.61344757 7.70913361 -12.61352539 6.53344727 C-12.615746 5.523069 -12.61796661 4.51269073 -12.62025452 3.47169495 C-12.32332336 -2.16841453 -4.29789918 0.00252818 0 0 Z M-7.5 10.1875 C-7.17 10.8475 -6.84 11.5075 -6.5 12.1875 C1.915 11.6925 1.915 11.6925 10.5 11.1875 C10.5 10.8575 10.5 10.5275 10.5 10.1875 C4.56 10.1875 -1.38 10.1875 -7.5 10.1875 Z M-2.5 16.1875 C-2.5 28.3975 -2.5 40.6075 -2.5 53.1875 C-0.85 53.1875 0.8 53.1875 2.5 53.1875 C1.18 52.8575 -0.14 52.5275 -1.5 52.1875 C-1.5 40.6375 -1.5 29.0875 -1.5 17.1875 C-0.18 17.1875 1.14 17.1875 2.5 17.1875 C2.5 27.7475 2.5 38.3075 2.5 49.1875 C3.49 48.6925 3.49 48.6925 4.5 48.1875 C4.17 45.8775 3.84 43.5675 3.5 41.1875 C4.16 41.1875 4.82 41.1875 5.5 41.1875 C5.5 41.8475 5.5 42.5075 5.5 43.1875 C10.36612963 43.07088251 13.55790619 42.94919287 17.4375 39.8125 C20.94915681 35.34311861 21.9367044 33.03220822 21.828125 27.4765625 C21.19665759 23.07132557 18.5458476 20.2333476 15.5 17.1875 C9.92351844 15.62158354 9.92351844 15.62158354 -2.5 16.1875 Z M26.5 26.1875 C26.5 28.8275 26.5 31.4675 26.5 34.1875 C26.83 34.1875 27.16 34.1875 27.5 34.1875 C27.5 31.5475 27.5 28.9075 27.5 26.1875 C27.17 26.1875 26.84 26.1875 26.5 26.1875 Z M31.5 34.1875 C32.5 37.1875 32.5 37.1875 32.5 37.1875 Z M30.5 37.1875 C31.5 39.1875 31.5 39.1875 31.5 39.1875 Z M28.5 41.1875 C29.5 43.1875 29.5 43.1875 29.5 43.1875 Z M26.5 44.1875 C27.5 46.1875 27.5 46.1875 27.5 46.1875 Z M23.5 47.1875 C23.17 47.8475 22.84 48.5075 22.5 49.1875 C23.49 48.8575 24.48 48.5275 25.5 48.1875 C24.84 47.8575 24.18 47.5275 23.5 47.1875 Z M10.5 52.1875 C10.5 52.5175 10.5 52.8475 10.5 53.1875 C12.15 53.1875 13.8 53.1875 15.5 53.1875 C15.5 52.8575 15.5 52.5275 15.5 52.1875 C13.85 52.1875 12.2 52.1875 10.5 52.1875 Z " fill="#D7D7D7" transform="translate(240.5,285.8125)"/>
<path d="M0 0 C1.65 0 3.3 0 5 0 C5.33 10.56 5.66 21.12 6 32 C13.92 32 21.84 32 30 32 C30 29.69 30 27.38 30 25 C23.73 25 17.46 25 11 25 C11 18.4 11 11.8 11 5 C12.50433594 5.01160156 14.00867188 5.02320313 15.55859375 5.03515625 C17.51822793 5.04453249 19.47786345 5.05363287 21.4375 5.0625 C22.43072266 5.07087891 23.42394531 5.07925781 24.44726562 5.08789062 C25.39150391 5.09111328 26.33574219 5.09433594 27.30859375 5.09765625 C28.18314209 5.10289307 29.05769043 5.10812988 29.95874023 5.11352539 C31.99440206 5.22784809 31.99440206 5.22784809 33 4 C25.41 4 17.82 4 10 4 C10 11.26 10 18.52 10 26 C16.27 26 22.54 26 29 26 C28.67 27.65 28.34 29.3 28 31 C20.74 31 13.48 31 6 31 C6 20.77 6 10.54 6 0 C16.56 0 27.12 0 38 0 C38 4.95 38 9.9 38 15 C31.07 15 24.14 15 17 15 C16.67 13.35 16.34 11.7 16 10 C16 13.3 16 16.6 16 20 C22.27 20 28.54 20 35 20 C35 24.95 35 29.9 35 35 C26.75 35 18.5 35 10 35 C10 39.29 10 43.58 10 48 C17.59 48 25.18 48 33 48 C33.495 49.98 33.495 49.98 34 52 C34 50.35 34 48.7 34 47 C26.41 47 18.82 47 11 47 C11 43.7 11 40.4 11 37 C12.65 37 14.3 37 16 37 C16 38.65 16 40.3 16 42 C23.59 42 31.18 42 39 42 C39 46.95 39 51.9 39 57 C26.13 57 13.26 57 0 57 C0 38.19 0 19.38 0 0 Z " fill="#DBDBDB" transform="translate(284,287)"/>
<path d="M0 0 C1.05960937 0.00676758 1.05960937 0.00676758 2.140625 0.01367188 C3.88545275 0.02546125 5.630237 0.04339676 7.375 0.0625 C9.31780496 3.5804306 11.25327502 7.10234574 13.1875 10.625 C13.73470703 11.61564453 14.28191406 12.60628906 14.84570312 13.62695312 C17.62138805 18.69047533 20.23107966 23.69893789 22.375 29.0625 C22.75011719 28.29486328 22.75011719 28.29486328 23.1328125 27.51171875 C25.12322314 23.58722985 27.24366325 19.73094708 29.34106445 15.86279297 C31.65658612 11.54671517 33.67110083 7.23299282 35.29296875 2.6015625 C36.375 1.0625 36.375 1.0625 38.6328125 0.34375 C41.4629204 0.05348252 44.21747292 -0.07026269 47.0625 -0.0625 C48.49142578 -0.06636719 48.49142578 -0.06636719 49.94921875 -0.0703125 C52.375 0.0625 52.375 0.0625 54.375 1.0625 C52.64223061 6.98745341 49.79472938 12.06403982 46.828125 17.43359375 C44.79785777 21.17391827 42.99544153 24.88498068 41.45703125 28.85546875 C39.14612647 34.80025408 36.34168372 40.45078337 33.4375 46.125 C32.92509766 47.16849609 32.41269531 48.21199219 31.88476562 49.28710938 C31.37751953 50.27646484 30.87027344 51.26582031 30.34765625 52.28515625 C29.89656494 53.17984619 29.44547363 54.07453613 28.98071289 54.99633789 C27.375 57.0625 27.375 57.0625 24.86499023 57.85717773 C22.35283607 58.06432762 19.89444241 58.13448407 17.375 58.0625 C12.75254792 49.56282776 8.26202796 41.16196135 4.68359375 32.16015625 C1.46738878 24.54687104 -2.4833164 17.24290165 -6.25 9.890625 C-6.930625 8.55257813 -6.930625 8.55257813 -7.625 7.1875 C-8.016875 6.42695313 -8.40875 5.66640625 -8.8125 4.8828125 C-9.625 3.0625 -9.625 3.0625 -9.625 1.0625 C-6.55966836 -0.47016582 -3.35745728 -0.04026471 0 0 Z M-1.625 5.0625 C-1.295 5.7225 -0.965 6.3825 -0.625 7.0625 C1.355 6.7325 3.335 6.4025 5.375 6.0625 C5.375 5.7325 5.375 5.4025 5.375 5.0625 C3.065 5.0625 0.755 5.0625 -1.625 5.0625 Z M36.375 13.0625 C37.375 15.0625 37.375 15.0625 37.375 15.0625 Z M9.375 16.0625 C10.375 18.0625 10.375 18.0625 10.375 18.0625 Z M40.375 17.0625 C41.375 19.0625 41.375 19.0625 41.375 19.0625 Z M10.375 18.0625 C11.375 20.0625 11.375 20.0625 11.375 20.0625 Z M39.375 19.0625 C40.375 21.0625 40.375 21.0625 40.375 21.0625 Z M8.375 27.0625 C9.375 29.0625 9.375 29.0625 9.375 29.0625 Z M20.375 33.0625 C19.715 33.7225 19.055 34.3825 18.375 35.0625 C19.035 35.7225 19.695 36.3825 20.375 37.0625 C20.705 35.7425 21.035 34.4225 21.375 33.0625 C21.045 33.0625 20.715 33.0625 20.375 33.0625 Z M18.375 47.0625 C19.365 48.5475 19.365 48.5475 20.375 50.0625 C20.705 49.0725 21.035 48.0825 21.375 47.0625 C20.385 47.0625 19.395 47.0625 18.375 47.0625 Z M25.375 47.0625 C26.375 49.0625 26.375 49.0625 26.375 49.0625 Z " fill="#CFCFCF" transform="translate(334.625,285.9375)"/>
<path d="M0 0 C22.77 0 45.54 0 69 0 C67.50235961 4.49292117 66.13264487 7.83224059 63.875 11.875 C61.30632523 16.55627871 58.85137773 21.26797732 56.5 26.0625 C52.4399859 34.29997088 48.06617112 42.36665213 43.70413208 50.44650269 C38.84753728 59.45043075 34.1466725 68.51777051 29.67651367 77.72119141 C26.75645534 83.68368811 23.47650134 89.34631377 20 95 C19.23163818 96.36765503 19.23163818 96.36765503 18.44775391 97.76293945 C17 100 17 100 14.95703125 100.48828125 C12.97135417 100.32552083 10.98567708 100.16276042 9 100 C10.00276577 96.353579 11.30549335 93.38291468 13.375 90.25 C15.23061358 87.39686004 16.58162542 84.69427178 17.75 81.5 C19.79070163 76.1184723 22.56931122 71.29502312 25.43164062 66.32202148 C28.55563038 60.86718258 31.42094718 55.31834866 34.17285156 49.66748047 C36.22107795 45.47933255 38.42113923 41.40234439 40.70166016 37.33618164 C42.88683377 33.40426621 44.97244597 29.42055505 47.0625 25.4375 C47.48337891 24.63892578 47.90425781 23.84035156 48.33789062 23.01757812 C50.95501844 18.03894894 53.48321527 13.03356946 56 8 C37.52 7.67 19.04 7.34 0 7 C0 4.69 0 2.38 0 0 Z " fill="#E3E3E3" transform="translate(308,167)"/>
<path d="M0 0 C2.64 0 5.28 0 8 0 C7.49645951 5.19525906 5.57269879 8.97537796 2.9375 13.375 C-0.24847731 18.85676444 -3.26826462 24.37066838 -6.0625 30.0625 C-8.61941731 35.2598568 -11.24956172 40.40227996 -14 45.5 C-16.72801115 50.55693051 -19.33827344 55.65711455 -21.875 60.8125 C-25.24896371 67.66305427 -28.90045171 74.33636505 -32.67529297 80.97387695 C-33.07893066 81.68761475 -33.48256836 82.40135254 -33.8984375 83.13671875 C-34.25599121 83.76280029 -34.61354492 84.38888184 -34.98193359 85.03393555 C-36.15535577 87.30001919 -37.08444736 89.61951168 -38 92 C-37.18732666 91.99476318 -36.37465332 91.98952637 -35.53735352 91.98413086 C-31.87907678 91.96343006 -28.22081233 91.95036197 -24.5625 91.9375 C-23.28310547 91.92912109 -22.00371094 91.92074219 -20.68554688 91.91210938 C-19.47060547 91.90888672 -18.25566406 91.90566406 -17.00390625 91.90234375 C-15.87799072 91.89710693 -14.7520752 91.89187012 -13.59204102 91.88647461 C-11 92 -11 92 -10 93 C-10 95.31 -10 97.62 -10 100 C-23.53 100 -37.06 100 -51 100 C-48.75487955 93.26463865 -48.75487955 93.26463865 -46.8984375 90.07421875 C-46.29310181 89.01630127 -46.29310181 89.01630127 -45.67553711 87.93701172 C-45.03177124 86.82350342 -45.03177124 86.82350342 -44.375 85.6875 C-40.96622276 79.68662534 -37.80044612 73.65454086 -34.9375 67.375 C-32.04399021 61.04462573 -28.83561291 54.99483057 -25.36401367 48.96411133 C-22.28014534 43.58083826 -19.48441024 38.08566561 -16.74487305 32.52075195 C-14.66249473 28.29766981 -12.47213343 24.16797836 -10.1484375 20.07421875 C-7.95966637 16.12103007 -5.99700904 12.05237224 -4 8 C-3.23016661 6.45783377 -2.45942035 4.91612268 -1.6875 3.375 C-1.130625 2.26125 -0.57375 1.1475 0 0 Z " fill="#DADADA" transform="translate(380,167)"/>
<path d="M0 0 C0 30.69 0 61.38 0 93 C7.92 93 15.84 93 24 93 C24 95.64 24 98.28 24 101 C13.44 101 2.88 101 -8 101 C-8 67.67 -8 34.34 -8 0 C-3 -1 -3 -1 0 0 Z " fill="#DBDBDB" transform="translate(257,167)"/>
<path d="M0 0 C3.11628463 0.37335182 3.99572732 1.08954397 6.17987061 3.29304504 C6.83695007 3.94404678 7.49402954 4.59504852 8.17102051 5.26577759 C8.86391174 5.97820114 9.55680298 6.69062469 10.27069092 7.42463684 C10.99371399 8.1499913 11.71673706 8.87534576 12.46166992 9.62268066 C13.98708541 11.1578364 15.50646552 12.69900938 17.02020264 14.24568176 C19.34162215 16.61650872 21.68118464 18.9681444 24.02459717 21.31721497 C25.50356253 22.810266 26.98146403 24.30437177 28.45819092 25.79963684 C29.15917908 26.5059877 29.86016724 27.21233856 30.58239746 27.94009399 C31.22686829 28.60055222 31.87133911 29.26101044 32.53533936 29.94148254 C33.10427917 30.52106216 33.67321899 31.10064178 34.25939941 31.69778442 C35.59881592 33.31135559 35.59881592 33.31135559 36.59881592 36.31135559 C33.46497405 42.29414461 28.39994684 46.65595883 23.59881592 51.31135559 C21.0253777 53.87246104 18.46574357 56.44617125 15.91522217 59.03010559 C13.16194501 61.81072025 10.38624874 64.56503535 7.59881592 67.31135559 C6.99295654 67.92494934 6.38709717 68.53854309 5.76287842 69.17073059 C4.28631592 70.56135559 4.28631592 70.56135559 1.59881592 72.31135559 C-1.77618408 72.12385559 -1.77618408 72.12385559 -4.40118408 71.31135559 C-4.85784139 68.35489319 -4.99925535 66.19435704 -3.27545166 63.64930725 C-1.60001889 61.81592907 0.14296194 60.09341752 1.94256592 58.38166809 C2.58625122 57.74647247 3.22993652 57.11127686 3.89312744 56.45683289 C5.94801895 54.43547144 8.02279369 52.43598635 10.09881592 50.43635559 C11.49731496 49.06795616 12.89446763 47.69817928 14.29022217 46.32698059 C17.71101445 42.97226779 21.14978851 39.6370227 24.59881592 36.31135559 C23.75584961 35.49457336 22.9128833 34.67779114 22.04437256 33.83625793 C18.91383171 30.79636353 15.7999878 27.73983081 12.69085693 24.67805481 C11.34410398 23.35641273 9.9928931 22.03929715 8.637146 20.72688293 C6.68661712 18.83715162 4.75281722 16.93160246 2.82147217 15.02229309 C2.21416763 14.44079498 1.6068631 13.85929687 0.9811554 13.26017761 C-1.77446244 10.50641644 -3.24877572 8.80656351 -4.4151001 5.016922 C-4.3965916 1.41847956 -3.57981169 0.46418531 0 0 Z " fill="#D89C64" transform="translate(337.40118408203125,65.68864440917969)"/>
<path d="M0 0 C1.875 0.75 1.875 0.75 2.875 1.75 C3.48320652 6.61565216 2.17030375 9.77501815 0.11254883 14.04101562 C-1.19072413 16.89386958 -2.2988495 19.77620456 -3.39453125 22.71484375 C-6.49355726 30.8411405 -10.0739849 38.7263144 -13.6640625 46.64453125 C-16.63456997 53.24819787 -19.37210673 59.88836775 -21.93261719 66.66113281 C-23.72350606 71.30042971 -25.71114656 75.84030872 -27.75 80.375 C-28.1315625 81.24511719 -28.513125 82.11523438 -28.90625 83.01171875 C-29.28007812 83.84574219 -29.65390625 84.67976563 -30.0390625 85.5390625 C-30.5333374 86.64822021 -30.5333374 86.64822021 -31.03759766 87.77978516 C-32.19024976 89.86822307 -33.25433895 91.26903525 -35.125 92.75 C-37.8125 92.4375 -37.8125 92.4375 -40.125 91.75 C-41.46861011 87.30387201 -40.73816253 85.03775296 -38.8125 80.875 C-38.24565774 79.61868622 -37.67928528 78.3621604 -37.11328125 77.10546875 C-36.79568848 76.41243652 -36.4780957 75.7194043 -36.15087891 75.00537109 C-34.2174242 70.75471556 -32.36301685 66.46937737 -30.5 62.1875 C-29.86928589 60.74298462 -29.86928589 60.74298462 -29.22583008 59.26928711 C-25.98710117 51.82051023 -22.86210671 44.32765591 -19.7727356 36.81613159 C-16.10161535 27.89110923 -12.43064594 18.96687095 -8.5625 10.125 C-8.097229 9.04255005 -8.097229 9.04255005 -7.62255859 7.93823242 C-3.90041909 -0.45887283 -3.90041909 -0.45887283 0 0 Z " fill="#E6A66A" transform="translate(327.125,54.25)"/>
<path d="M0 0 C0.99273926 0.30824707 1.98547852 0.61649414 3.00830078 0.93408203 C3.40478516 3.00708008 3.40478516 3.00708008 3.00830078 5.93408203 C1.17765791 8.49151315 -1.07085418 10.5936473 -3.33544922 12.76611328 C-3.97913452 13.40272385 -4.62281982 14.03933441 -5.28601074 14.69523621 C-7.34313387 16.72438727 -9.41695931 18.73546236 -11.49169922 20.74658203 C-12.88997097 22.11977486 -14.28712094 23.49411096 -15.68310547 24.86962891 C-19.10643114 28.23784756 -22.54483934 31.58995779 -25.99169922 34.93408203 C-22.38235204 39.25075522 -18.68156258 43.3420072 -14.62841797 47.25439453 C-13.64947334 48.21098695 -12.67096996 49.1680311 -11.69287109 50.12548828 C-10.1786929 51.60241033 -8.66166995 53.07593699 -7.13696289 54.54199219 C-5.64576964 55.97869632 -4.16760233 57.42780164 -2.69091797 58.87939453 C-1.37353638 60.15580811 -1.37353638 60.15580811 -0.02954102 61.45800781 C2.13361459 64.08634424 2.79861721 65.5670409 3.00830078 68.93408203 C2.00830078 70.93408203 2.00830078 70.93408203 -0.33959961 71.72070312 C-2.99169922 71.93408203 -2.99169922 71.93408203 -4.7355957 70.97949219 C-5.57199585 70.1719751 -5.57199585 70.1719751 -6.42529297 69.34814453 C-7.11091309 68.6987793 -7.7965332 68.04941406 -8.50292969 67.38037109 C-9.32422363 66.5730957 -10.14551758 65.76582031 -10.99169922 64.93408203 C-12.05307713 63.92199071 -13.11583989 62.91135047 -14.1796875 61.90185547 C-17.21133111 59.01245392 -20.20498178 56.08676853 -23.18579102 53.14501953 C-24.44139992 51.91123161 -25.70324576 50.68376194 -26.97094727 49.46240234 C-28.81662569 47.68330957 -30.64212652 45.88558439 -32.46435547 44.08251953 C-33.03501236 43.5396933 -33.60566925 42.99686707 -34.19361877 42.43759155 C-35.75366211 40.86914062 -35.75366211 40.86914062 -37.99169922 37.93408203 C-37.72371937 34.07448207 -36.6234752 32.05694861 -33.95996094 29.32128906 C-33.3219455 28.65775421 -32.68393005 27.99421936 -32.02658081 27.31057739 C-31.33186676 26.61141205 -30.63715271 25.9122467 -29.92138672 25.19189453 C-29.2069339 24.46412811 -28.49248108 23.73636169 -27.75637817 22.98654175 C-26.24344771 21.45338148 -24.7250606 19.92558942 -23.20166016 18.40283203 C-20.87473356 16.06714661 -18.58165604 13.70138131 -16.28857422 11.33251953 C-14.81397916 9.84619003 -13.33747793 8.36174874 -11.85888672 6.87939453 C-11.17631805 6.1680838 -10.49374939 5.45677307 -9.79049683 4.72390747 C-4.89404295 -0.08081906 -4.89404295 -0.08081906 0 0 Z " fill="#E9A76B" transform="translate(280.99169921875,66.06591796875)"/>
<path d="M0 0 C4.62 0 9.24 0 14 0 C14 0.33 14 0.66 14 1 C9.71 1 5.42 1 1 1 C1.33 1.33 1.66 1.66 2 2 C3.56850462 1.96786698 5.13571647 1.86750935 6.69921875 1.73828125 C8.14264648 1.63870117 8.14264648 1.63870117 9.61523438 1.53710938 C11.64487836 1.38872472 13.67362909 1.22749989 15.70117188 1.05273438 C24.0156141 0.5161403 24.0156141 0.5161403 27.58203125 2.79296875 C30 5 30 5 32 8 C32.7734375 8.6496875 32.7734375 8.6496875 33.5625 9.3125 C35.69720792 11.81846147 35.70644604 13.71219568 36 17 C36.08765625 17.84304688 36.1753125 18.68609375 36.265625 19.5546875 C36.65112512 25.88039408 35.7837477 29.49100092 31.80078125 34.44140625 C27.84124184 37.86842626 23.24323714 38.41004727 18.1875 39.125 C16.44533203 39.37636719 16.44533203 39.37636719 14.66796875 39.6328125 C13.78753906 39.75398438 12.90710938 39.87515625 12 40 C12 37.36 12 34.72 12 32 C12.66 32 13.32 32 14 32 C14 32.66 14 33.32 14 34 C15.79458945 33.77192509 17.58575449 33.51677697 19.375 33.25 C20.37273437 33.11078125 21.37046875 32.9715625 22.3984375 32.828125 C25.11025817 32.26780404 25.11025817 32.26780404 26.2265625 30.109375 C26.60941406 29.06523437 26.60941406 29.06523437 27 28 C27.66 27.01 28.32 26.02 29 25 C29.7625943 20.34462779 29.39395811 16.80250726 27.3125 12.5625 C21.51052491 6.13328436 14.6595184 7.61853703 6 7 C6 19.54 6 32.08 6 45 C4.02 45 2.04 45 0 45 C0 30.15 0 15.3 0 0 Z " fill="#ABABAB" transform="translate(232,295)"/>
<path d="M0 0 C10.56 0 21.12 0 32 0 C32 4.95 32 9.9 32 15 C25.07 15 18.14 15 11 15 C11 13.68 11 12.36 11 11 C15.62 10.67 20.24 10.34 25 10 C19.72 9.67 14.44 9.34 9 9 C9 12.96 9 16.92 9 21 C15.27 21 21.54 21 28 21 C28 25.29 28 29.58 28 34 C26.68 33.67 25.36 33.34 24 33 C24.33 30.03 24.66 27.06 25 24 C18.73 24 12.46 24 6 24 C6 18.06 6 12.12 6 6 C12.6 6 19.2 6 26 6 C26.33 5.34 26.66 4.68 27 4 C19.41 4 11.82 4 4 4 C4 11.26 4 18.52 4 26 C10.27 26 16.54 26 23 26 C22.67 27.65 22.34 29.3 22 31 C14.74 31 7.48 31 0 31 C0 20.77 0 10.54 0 0 Z " fill="#D9D9D9" transform="translate(290,287)"/>
<path d="M0 0 C1.8871875 -0.00386719 1.8871875 -0.00386719 3.8125 -0.0078125 C7 0.125 7 0.125 9 1.125 C7.35433477 6.81002535 4.70967216 11.89181636 2 17.125 C1 14.125 1 14.125 1 11.125 C0.34 11.125 -0.32 11.125 -1 11.125 C-1.28875 12.259375 -1.5775 13.39375 -1.875 14.5625 C-2.24625 15.738125 -2.6175 16.91375 -3 18.125 C-3.99 18.62 -3.99 18.62 -5 19.125 C-5 20.115 -5 21.105 -5 22.125 C-5.66 22.125 -6.32 22.125 -7 22.125 C-7.495 20.64 -7.495 20.64 -8 19.125 C-8.66 19.125 -9.32 19.125 -10 19.125 C-10.23847656 19.77597656 -10.47695313 20.42695313 -10.72265625 21.09765625 C-12.39171356 25.05337311 -14.40516442 28.78347212 -16.4375 32.5625 C-17.22851872 34.04001457 -18.01889541 35.51787305 -18.80859375 36.99609375 C-19.18508057 37.69702148 -19.56156738 38.39794922 -19.94946289 39.12011719 C-20.8952695 40.92512856 -21.77617333 42.7637925 -22.6484375 44.60546875 C-24 47.125 -24 47.125 -26.1875 48 C-26.785625 48.04125 -27.38375 48.0825 -28 48.125 C-29.56564245 45.13604623 -30.95122283 42.27438007 -32 39.0625 C-32.89360208 36.07764125 -32.89360208 36.07764125 -34.625 33.5 C-36 31.125 -36 31.125 -36 27.125 C-36.99 26.795 -37.98 26.465 -39 26.125 C-39.33 24.475 -39.66 22.825 -40 21.125 C-39.01 20.465 -38.02 19.805 -37 19.125 C-36.67 18.135 -36.34 17.145 -36 16.125 C-33.49956534 18.62543466 -32.13749301 20.66341634 -31.125 24.0625 C-29.91294446 27.36198452 -28.70684954 28.92568475 -26 31.125 C-25.34 31.125 -24.68 31.125 -24 31.125 C-23.38853717 29.90207435 -22.78082343 28.67725357 -22.1796875 27.44921875 C-20.88967721 24.90764219 -19.53732368 22.40229314 -18.18212891 19.89501953 C-15.49035442 14.91057431 -12.84351608 9.96855487 -10.625 4.75 C-8.10051315 -0.8815476 -5.81787238 -0.01192187 0 0 Z M-9 13.125 C-8 15.125 -8 15.125 -8 15.125 Z M-25 33.125 C-25.66 33.785 -26.32 34.445 -27 35.125 C-26.34 35.785 -25.68 36.445 -25 37.125 C-24.67 35.805 -24.34 34.485 -24 33.125 C-24.33 33.125 -24.66 33.125 -25 33.125 Z " fill="#C1C1C1" transform="translate(380,285.875)"/>
<path d="M0 0 C1.06476563 -0.01224609 2.12953125 -0.02449219 3.2265625 -0.03710938 C19.5687175 -0.06722391 19.5687175 -0.06722391 25.8125 5 C26.42738281 5.48082031 27.04226563 5.96164062 27.67578125 6.45703125 C34.19762176 12.64370222 37.60077965 21.22031562 37.875 30.25 C37.5 33.1875 37.5 33.1875 35.5 37.1875 C35.5 32.5675 35.5 27.9475 35.5 23.1875 C34.84 23.1875 34.18 23.1875 33.5 23.1875 C33.5 26.4875 33.5 29.7875 33.5 33.1875 C32.51 33.6825 32.51 33.6825 31.5 34.1875 C31.35304688 33.02734375 31.35304688 33.02734375 31.203125 31.84375 C29.90357975 22.79174518 28.04349977 15.01656801 20.5 9.1875 C9.98923997 6.27373144 9.98923997 6.27373144 -11.5 6.1875 C-11.5 23.0175 -11.5 39.8475 -11.5 57.1875 C-2.26 57.1875 6.98 57.1875 16.5 57.1875 C16.5 57.5175 16.5 57.8475 16.5 58.1875 C6.93 58.1875 -2.64 58.1875 -12.5 58.1875 C-12.52094585 50.77965172 -12.5409839 43.37191012 -12.55175018 35.96405792 C-12.55703976 32.51468138 -12.56411301 29.06532925 -12.57543945 25.6159668 C-12.58834235 21.66194957 -12.59322918 17.70794244 -12.59765625 13.75390625 C-12.60281754 12.51226212 -12.60797882 11.27061798 -12.61329651 9.99134827 C-12.61337204 8.85024094 -12.61344757 7.70913361 -12.61352539 6.53344727 C-12.615746 5.523069 -12.61796661 4.51269073 -12.62025452 3.47169495 C-12.32332336 -2.16841453 -4.29789918 0.00252818 0 0 Z " fill="#ACABAC" transform="translate(240.5,285.8125)"/>
<path d="M0 0 C0.33 0 0.66 0 1 0 C1.33 10.56 1.66 21.12 2 32 C9.92 32 17.84 32 26 32 C26 29.69 26 27.38 26 25 C19.73 25 13.46 25 7 25 C7 18.4 7 11.8 7 5 C13.93 5 20.86 5 28 5 C28 5.33 28 5.66 28 6 C21.4 6 14.8 6 8 6 C8 11.94 8 17.88 8 24 C14.27 24 20.54 24 27 24 C27 26.97 27 29.94 27 33 C28.485 33.495 28.485 33.495 30 34 C30 29.71 30 25.42 30 21 C23.73 21 17.46 21 11 21 C11 17.04 11 13.08 11 9 C16.28 9 21.56 9 27 9 C27 9.33 27 9.66 27 10 C22.05 10 17.1 10 12 10 C12 13.3 12 16.6 12 20 C18.27 20 24.54 20 31 20 C31 24.95 31 29.9 31 35 C22.75 35 14.5 35 6 35 C6 39.29 6 43.58 6 48 C13.59 48 21.18 48 29 48 C29.33 49.65 29.66 51.3 30 53 C20.1 53 10.2 53 0 53 C0 35.51 0 18.02 0 0 Z " fill="#B1B1B1" transform="translate(288,287)"/>
<path d="M0 0 C0.66 0.66 1.32 1.32 2 2 C-2.00082378 12.5049563 -6.21399048 22.81804193 -11.25 32.875 C-11.66169434 33.69967773 -12.07338867 34.52435547 -12.49755859 35.37402344 C-13.63205664 37.60258379 -14.79934276 39.80647145 -16 42 C-16.33612305 42.62245605 -16.67224609 43.24491211 -17.01855469 43.88623047 C-18 45.546875 -18 45.546875 -20 48 C-22.359375 48.5859375 -22.359375 48.5859375 -24.75 48.375 C-25.54921875 48.32085937 -26.3484375 48.26671875 -27.171875 48.2109375 C-27.77515625 48.14132812 -28.3784375 48.07171875 -29 48 C-28.67 45.36 -28.34 42.72 -28 40 C-27.34 40 -26.68 40 -26 40 C-25.78085937 39.23945313 -25.56171875 38.47890625 -25.3359375 37.6953125 C-23.47899235 32.55885018 -21.06293026 27.75727613 -18.625 22.875 C-18.14289063 21.88628906 -17.66078125 20.89757812 -17.1640625 19.87890625 C-16.6896875 18.92628906 -16.2153125 17.97367187 -15.7265625 16.9921875 C-15.29939941 16.12964355 -14.87223633 15.26709961 -14.43212891 14.37841797 C-12.90184536 11.836989 -11.17353744 10.00531596 -9 8 C-8.34 9.32 -7.68 10.64 -7 12 C-6.66226562 11.21753906 -6.32453125 10.43507813 -5.9765625 9.62890625 C-5.53054688 8.61699219 -5.08453125 7.60507812 -4.625 6.5625 C-4.18414062 5.55316406 -3.74328125 4.54382813 -3.2890625 3.50390625 C-2 1 -2 1 0 0 Z M-21 37 C-20 39 -20 39 -20 39 Z " fill="#F7F7F7" transform="translate(381,296)"/>
<path d="M0 0 C24 0 24 0 34 4 C39.5 9.5 39.5 9.5 41 14 C39.68 14 38.36 14 37 14 C36.505 12.515 36.505 12.515 36 11 C35.34 11 34.68 11 34 11 C32.31237149 9.3545622 30.6459651 7.68711423 29 6 C26.46321803 4.73160901 24.38560319 4.68833709 21.5546875 4.46484375 C20.58515137 4.38613037 19.61561523 4.30741699 18.61669922 4.22631836 C17.38193848 4.1310083 16.14717773 4.03569824 14.875 3.9375 C10.95625 3.628125 7.0375 3.31875 3 3 C3 17.85 3 32.7 3 48 C7.95 47.505 7.95 47.505 13 47 C12.67 48.32 12.34 49.64 12 51 C8.04 51 4.08 51 0 51 C0 34.17 0 17.34 0 0 Z " fill="#FAF9FA" transform="translate(229,292)"/>
<path d="M0 0 C1.8871875 -0.00386719 1.8871875 -0.00386719 3.8125 -0.0078125 C7 0.125 7 0.125 9 1.125 C7.35433477 6.81002535 4.70967216 11.89181636 2 17.125 C1 14.125 1 14.125 1 11.125 C0.34 11.125 -0.32 11.125 -1 11.125 C-1.28875 12.259375 -1.5775 13.39375 -1.875 14.5625 C-2.24625 15.738125 -2.6175 16.91375 -3 18.125 C-3.66 18.455 -4.32 18.785 -5 19.125 C-5 20.115 -5 21.105 -5 22.125 C-5.66 22.125 -6.32 22.125 -7 22.125 C-7.33 21.135 -7.66 20.145 -8 19.125 C-8.66 19.125 -9.32 19.125 -10 19.125 C-10.33 20.115 -10.66 21.105 -11 22.125 C-11.66 21.795 -12.32 21.465 -13 21.125 C-11.00386732 14.4063095 -8.2708579 8.31765192 -5 2.125 C-6.32 2.455 -7.64 2.785 -9 3.125 C-9 2.465 -9 1.805 -9 1.125 C-6.02760209 -0.36119895 -3.30380422 -0.00677009 0 0 Z M-9 13.125 C-8 15.125 -8 15.125 -8 15.125 Z " fill="#BAB9BA" transform="translate(380,285.875)"/>
<path d="M0 0 C6.6 0 13.2 0 20 0 C19.67 1.32 19.34 2.64 19 4 C13.72 3.67 8.44 3.34 3 3 C3 6.96 3 10.92 3 15 C9.27 15 15.54 15 22 15 C22 19.29 22 23.58 22 28 C20.68 27.67 19.36 27.34 18 27 C18.33 24.03 18.66 21.06 19 18 C12.73 18 6.46 18 0 18 C0 12.06 0 6.12 0 0 Z " fill="#FBFBFB" transform="translate(296,293)"/>
<path d="M0 0 C5.34390889 4.48130942 10.40984402 9.16592352 15.375 14.0625 C16.09816406 14.75666016 16.82132812 15.45082031 17.56640625 16.16601562 C18.25347656 16.84470703 18.94054687 17.52339844 19.6484375 18.22265625 C20.26895996 18.82859619 20.88948242 19.43453613 21.52880859 20.05883789 C23.29419751 22.38817863 23.72398152 24.10830747 24 27 C23 29 23 29 20.69921875 29.828125 C18 30 18 30 15.83203125 28.671875 C15.16558594 28.03765625 14.49914062 27.4034375 13.8125 26.75 C13.13832031 26.12609375 12.46414063 25.5021875 11.76953125 24.859375 C10 23 10 23 8 20 C8.33 19.34 8.66 18.68 9 18 C9.0689472 16.62657169 9.08467708 15.24997898 9.0625 13.875 C9.041875 12.59625 9.02125 11.3175 9 10 C8.01 10 7.02 10 6 10 C6 9.34 6 8.68 6 8 C4.68 7.67 3.36 7.34 2 7 C2 6.01 2 5.02 2 4 C1.34 4 0.68 4 0 4 C0 2.68 0 1.36 0 0 Z " fill="#E3A167" transform="translate(260,108)"/>
<path d="M0 0 C0.66 0.66 1.32 1.32 2 2 C1.01 3.485 1.01 3.485 0 5 C1.32 5.33 2.64 5.66 4 6 C2.35759265 11.60620611 -0.15247944 16.63740845 -2.8125 21.8125 C-3.45155273 23.11864258 -3.45155273 23.11864258 -4.10351562 24.45117188 C-4.52955078 25.27810547 -4.95558594 26.10503906 -5.39453125 26.95703125 C-5.96457886 28.08588745 -5.96457886 28.08588745 -6.54614258 29.23754883 C-8.47902848 31.5807064 -10.04930637 31.68776218 -13 32 C-14.4036827 27.78895189 -12.85924949 25.92508225 -11 22 C-10.67257812 21.35289062 -10.34515625 20.70578125 -10.0078125 20.0390625 C-8.99460204 17.98907855 -8.08725571 15.91448248 -7.1875 13.8125 C-5.08474023 9.0356646 -2.60612389 4.51799346 0 0 Z " fill="#B6B6B6" transform="translate(370,312)"/>
<path d="M0 0 C1.32 0 2.64 0 4 0 C5.75 2.5 5.75 2.5 7 5 C7.33 3.68 7.66 2.36 8 1 C10.48823717 1.36595581 11.67607856 1.5965189 13.28027344 3.59472656 C13.81442871 4.60744629 13.81442871 4.60744629 14.359375 5.640625 C14.75253906 6.38183594 15.14570313 7.12304688 15.55078125 7.88671875 C15.94652344 8.66660156 16.34226562 9.44648438 16.75 10.25 C17.16121094 11.01441406 17.57242187 11.77882813 17.99609375 12.56640625 C21.60963702 19.51737486 21.60963702 19.51737486 21 24 C20.01 24.33 19.02 24.66 18 25 C17.67 23.68 17.34 22.36 17 21 C16.34 21 15.68 21 15 21 C12 14.375 12 14.375 12 11 C11.34 11 10.68 11 10 11 C9.67 10.34 9.34 9.68 9 9 C8.67 10.65 8.34 12.3 8 14 C5 13 5 13 3.8125 11.25 C2.89180904 8.70039426 2.85051282 6.69076919 3 4 C2.34 4 1.68 4 1 4 C0.67 2.68 0.34 1.36 0 0 Z " fill="#D3D3D3" transform="translate(335,293)"/>
<path d="M0 0 C5.61 0 11.22 0 17 0 C17 0.99 17 1.98 17 3 C12.38 3 7.76 3 3 3 C3 15.54 3 28.08 3 41 C2.01 41 1.02 41 0 41 C0 27.47 0 13.94 0 0 Z " fill="#FCFBFC" transform="translate(234,298)"/>
<path d="M0 0 C1.05960937 0.00676758 1.05960937 0.00676758 2.140625 0.01367188 C3.88545275 0.02546125 5.630237 0.04339676 7.375 0.0625 C10.59765625 5.3359375 10.59765625 5.3359375 11.375 7.0625 C11.045 7.7225 10.715 8.3825 10.375 9.0625 C9.715 8.7325 9.055 8.4025 8.375 8.0625 C8.375 9.3825 8.375 10.7025 8.375 12.0625 C7.385 11.7325 6.395 11.4025 5.375 11.0625 C4.6875 9 4.6875 9 4.375 7.0625 C3.385 7.3925 2.395 7.7225 1.375 8.0625 C0.64176204 10.07758358 0.64176204 10.07758358 0.375 12.0625 C-0.945 12.0625 -2.265 12.0625 -3.625 12.0625 C-6.93438588 8.75311412 -8.37706942 5.53425125 -9.625 1.0625 C-6.55966836 -0.47016582 -3.35745728 -0.04026471 0 0 Z M-1.625 5.0625 C-1.295 5.7225 -0.965 6.3825 -0.625 7.0625 C1.355 6.7325 3.335 6.4025 5.375 6.0625 C5.375 5.7325 5.375 5.4025 5.375 5.0625 C3.065 5.0625 0.755 5.0625 -1.625 5.0625 Z " fill="#BEBEBE" transform="translate(334.625,285.9375)"/>
<path d="M0 0 C1.32 0 2.64 0 4 0 C4 11.55 4 23.1 4 35 C2.68 35 1.36 35 0 35 C0 23.45 0 11.9 0 0 Z " fill="#EFEFEF" transform="translate(239,303)"/>
<path d="M0 0 C0.66 0.33 1.32 0.66 2 1 C-0.27435204 8.18216433 -3.03584181 15.0758202 -6 22 C-6.33 22 -6.66 22 -7 22 C-7 19.03 -7 16.06 -7 13 C-7.66 12.67 -8.32 12.34 -9 12 C-9.66 13.98 -10.32 15.96 -11 18 C-11.66 18 -12.32 18 -13 18 C-13.33 19.98 -13.66 21.96 -14 24 C-14.66 24 -15.32 24 -16 24 C-15.26951699 19.31196344 -13.63363115 15.09114445 -11.9375 10.6875 C-11.51500977 9.57665039 -11.51500977 9.57665039 -11.08398438 8.44335938 C-10.39281425 6.62757345 -9.69688311 4.81360101 -9 3 C-6.8614515 5.1385485 -6.57344937 6.13275314 -6 9 C-5.01 8.67 -4.02 8.34 -3 8 C-2.87625 7.236875 -2.7525 6.47375 -2.625 5.6875 C-2 3 -2 3 0 0 Z " fill="#D99D6B" transform="translate(321,76)"/>
<path d="M0 0 C2.475 0.495 2.475 0.495 5 1 C0.01595832 7.03331362 -5.41915303 12.5184171 -11 18 C-11.61875 17.67 -12.2375 17.34 -12.875 17 C-14.91018344 15.85806765 -14.91018344 15.85806765 -17 16 C-17 15.34 -17 14.68 -17 14 C-15.33333333 12.66666667 -13.66666667 11.33333333 -12 10 C-11.14721775 8.95304579 -10.31390492 7.88995509 -9.5 6.8125 C-6.7701014 3.74136407 -5.88603581 3.52513997 -2 3 C-1.34 2.01 -0.68 1.02 0 0 Z " fill="#F6AD6E" transform="translate(277,72)"/>
<path d="M0 0 C0.66 0.66 1.32 1.32 2 2 C0.8033029 5.3251498 -0.43757029 8.63203058 -1.6875 11.9375 C-2.19700195 13.35579102 -2.19700195 13.35579102 -2.71679688 14.80273438 C-3.2340332 16.15141602 -3.2340332 16.15141602 -3.76171875 17.52734375 C-4.07069092 18.35999756 -4.37966309 19.19265137 -4.69799805 20.05053711 C-6 22 -6 22 -8.63989258 22.77954102 C-9.41872803 22.85229248 -10.19756348 22.92504395 -11 23 C-10.88590407 21.54077307 -10.75834456 20.08259402 -10.625 18.625 C-10.55539062 17.81289063 -10.48578125 17.00078125 -10.4140625 16.1640625 C-10 14 -10 14 -8 12 C-5.93344351 9.57404238 -4.62610924 7.24200156 -3.4375 4.3125 C-2 1 -2 1 0 0 Z " fill="#C4C4C4" transform="translate(381,296)"/>
<path d="M0 0 C-1 3 -1 3 -2.77832031 4.17529297 C-5.20420788 5.07580376 -6.96724882 5.23017231 -9.546875 5.1953125 C-10.81337891 5.18564453 -10.81337891 5.18564453 -12.10546875 5.17578125 C-12.97816406 5.15902344 -13.85085937 5.14226562 -14.75 5.125 C-16.08224609 5.11146484 -16.08224609 5.11146484 -17.44140625 5.09765625 C-19.62788058 5.07414577 -21.81380094 5.04128499 -24 5 C-24 4.01 -24 3.02 -24 2 C-18.70631688 1.31378182 -13.41982885 0.74227618 -8.1015625 0.28125 C-1.85089974 -0.55526992 -1.85089974 -0.55526992 0 0 Z " fill="#EBEAEA" transform="translate(265,338)"/>
<path d="M0 0 C0 0.99 0 1.98 0 3 C-0.33 3.33 -0.66 3.66 -1 4 C-0.34 4.33 0.32 4.66 1 5 C1 5.66 1 6.32 1 7 C2.32 6.67 3.64 6.34 5 6 C5 9 5 9 3.6875 10.38671875 C2.125 11.59114583 0.5625 12.79557292 -1 14 C-1 12.68 -1 11.36 -1 10 C-3.31 10.33 -5.62 10.66 -8 11 C-8.33 11.99 -8.66 12.98 -9 14 C-10.32 13.67 -11.64 13.34 -13 13 C-8.71 8.71 -4.42 4.42 0 0 Z " fill="#CD9460" transform="translate(361,103)"/>
<path d="M0 0 C0.66 0 1.32 0 2 0 C1.67 1.32 1.34 2.64 1 4 C0.34 4 -0.32 4 -1 4 C-1 5.98 -1 7.96 -1 10 C-1.66 10 -2.32 10 -3 10 C-3.33 11.98 -3.66 13.96 -4 16 C-5.32 16.33 -6.64 16.66 -8 17 C-8 16.01 -8 15.02 -8 14 C-8.99 14 -9.98 14 -11 14 C-11 12.35 -11 10.7 -11 9 C-9.68 9 -8.36 9 -7 9 C-6.938125 8.401875 -6.87625 7.80375 -6.8125 7.1875 C-5.67717105 4.13084514 -3.78847225 3.53365974 -1 2 C-0.67 1.34 -0.34 0.68 0 0 Z M-8 11 C-7.67 11.99 -7.34 12.98 -7 14 C-7 13.01 -7 12.02 -7 11 C-7.33 11 -7.66 11 -8 11 Z " fill="#FAB06D" transform="translate(256,90)"/>
<path d="M0 0 C1.98 0.495 1.98 0.495 4 1 C3.67 2.65 3.34 4.3 3 6 C3.61875 5.649375 4.2375 5.29875 4.875 4.9375 C5.57625 4.628125 6.2775 4.31875 7 4 C7.66 4.33 8.32 4.66 9 5 C9.625 7.0625 9.625 7.0625 10 9 C11.32 9 12.64 9 14 9 C14 9.99 14 10.98 14 12 C13.34 12 12.68 12 12 12 C11.34 12.66 10.68 13.32 10 14 C6.5625 12.75 6.5625 12.75 3 11 C1.98372498 8.76419496 2 7.42194077 2 5 C1.01 4.67 0.02 4.34 -1 4 C-0.67 2.68 -0.34 1.36 0 0 Z " fill="#EEAB6A" transform="translate(357,89)"/>
<path d="M0 0 C0.99 0.66 1.98 1.32 3 2 C2.85915204 3.79206547 2.71216299 5.58364917 2.5625 7.375 C2.48128906 8.37273437 2.40007812 9.37046875 2.31640625 10.3984375 C2 13 2 13 1 15 C0.01 14.67 -0.98 14.34 -2 14 C-2.99 15.485 -2.99 15.485 -4 17 C-4.99 16.67 -5.98 16.34 -7 16 C-7 15.01 -7 14.02 -7 13 C-6.34 13 -5.68 13 -5 13 C-4.87625 12.030625 -4.7525 11.06125 -4.625 10.0625 C-4.41875 9.051875 -4.2125 8.04125 -4 7 C-3.34 6.67 -2.68 6.34 -2 6 C-1.27306096 4.02111039 -0.60183749 2.02045442 0 0 Z " fill="#F8B26D" transform="translate(312,87)"/>
<path d="M0 0 C0 1.65 0 3.3 0 5 C-4.75 6 -4.75 6 -7 6 C-7.99 7.485 -7.99 7.485 -9 9 C-9.99 9.33 -10.98 9.66 -12 10 C-12.66 9.34 -13.32 8.68 -14 8 C-12.69791204 5.97951869 -11.36011609 3.98188345 -10 2 C-9.566875 1.360625 -9.13375 0.72125 -8.6875 0.0625 C-5.83488282 -1.7335923 -3.15030664 -0.65383723 0 0 Z " fill="#F6B26D" transform="translate(284,67)"/>
<path d="M0 0 C0.7974855 2.31995782 1.11434828 3.61982909 0.3984375 6 C-1.82693347 10.34881655 -3.83175254 13.22116836 -8 16 C-10.475 15.01 -10.475 15.01 -13 14 C-5.66997167 5.30169972 -5.66997167 5.30169972 -3 3 C-2.01 3 -1.02 3 0 3 C0 2.01 0 1.02 0 0 Z " fill="#C8C8C8" transform="translate(275,323)"/>
<path d="M0 0 C0.33 0 0.66 0 1 0 C1 1.65 1 3.3 1 5 C1.99 5 2.98 5 4 5 C4 5.99 4 6.98 4 8 C4.99 7.67 5.98 7.34 7 7 C8.22520264 3.99152582 8.22520264 3.99152582 9 1 C11.38253561 2.19126781 12.12188876 3.38694426 13.625 5.5625 C14.07101562 6.20316406 14.51703125 6.84382813 14.9765625 7.50390625 C15.48316406 8.24447266 15.48316406 8.24447266 16 9 C13.36 8.67 10.72 8.34 8 8 C8 8.99 8 9.98 8 11 C8.66 11.33 9.32 11.66 10 12 C9.67 12.99 9.34 13.98 9 15 C7.29490284 13.45672226 5.6113326 11.8896325 3.9375 10.3125 C2.99777344 9.44238281 2.05804688 8.57226562 1.08984375 7.67578125 C-1 5 -1 5 -0.80859375 2.16796875 C-0.54175781 1.45253906 -0.27492187 0.73710938 0 0 Z M4 2 C4.66 2.66 5.32 3.32 6 4 C5.01 4.495 5.01 4.495 4 5 C4 4.01 4 3.02 4 2 Z " fill="#C38F5F" transform="translate(244,99)"/>
<path d="M0 0 C7.15801225 5.82628904 13.52591766 12.4382985 20 19 C18.1640625 19.6484375 18.1640625 19.6484375 16 20 C13.375 17.625 13.375 17.625 11 15 C10.34 14.67 9.68 14.34 9 14 C9 12.68 9 11.36 9 10 C8.01 10 7.02 10 6 10 C6 9.34 6 8.68 6 8 C4.68 7.67 3.36 7.34 2 7 C2 6.01 2 5.02 2 4 C1.34 4 0.68 4 0 4 C0 2.68 0 1.36 0 0 Z " fill="#BD9265" transform="translate(260,108)"/>
<path d="M0 0 C2.58548628 2.58548628 2.97641847 4.29538385 3.09765625 7.91796875 C3.08605469 8.99691406 3.07445312 10.07585937 3.0625 11.1875 C3.05347656 12.27417969 3.04445313 13.36085938 3.03515625 14.48046875 C3.02355469 15.31191406 3.01195312 16.14335937 3 17 C1.68 17 0.36 17 -1 17 C-1.33 11.72 -1.66 6.44 -2 1 C-1.34 0.67 -0.68 0.34 0 0 Z " fill="#EAEAEA" transform="translate(269,306)"/>
<path d="M0 0 C2.17516698 1.7023046 2.94786693 2.81042519 3.6875 5.5 C3.790625 6.655 3.89375 7.81 4 9 C4.08765625 9.84304688 4.1753125 10.68609375 4.265625 11.5546875 C4.65164275 17.88888791 3.84492646 21.62103554 -0.33203125 26.47265625 C-2.38919576 28.35638301 -4.28367792 29.36086539 -7 30 C-7 29.01 -7 28.02 -7 27 C-6.071875 26.87625 -6.071875 26.87625 -5.125 26.75 C-2.87612831 26.20052771 -2.87612831 26.20052771 -1.875 24.25 C-1.58625 23.5075 -1.2975 22.765 -1 22 C-0.65710938 21.24203125 -0.31421875 20.4840625 0.0390625 19.703125 C1.07375184 16.79253547 1.26729426 14.57837898 1.25 11.5 C1.25515625 10.5821875 1.2603125 9.664375 1.265625 8.71875 C0.98262598 5.8221718 0.20350245 3.63624347 -1 1 C-0.67 0.67 -0.34 0.34 0 0 Z " fill="#888888" transform="translate(264,303)"/>
<path d="M0 0 C1.32 0 2.64 0 4 0 C6.74522883 4.42778844 8.48474397 7.71862571 9 13 C7.68 13 6.36 13 5 13 C3.14223235 9.86501708 2.79859524 7.62528568 3 4 C2.34 4 1.68 4 1 4 C0.67 2.68 0.34 1.36 0 0 Z " fill="#F2F3F2" transform="translate(335,293)"/>
<path d="M0 0 C1.32 0 2.64 0 4 0 C3.57812394 4.4296986 0.53693648 6.83545894 -2.5 9.75 C-3.01175781 10.25660156 -3.52351563 10.76320313 -4.05078125 11.28515625 C-7.84572945 15 -7.84572945 15 -9 15 C-9 13.35 -9 11.7 -9 10 C-8.34 10 -7.68 10 -7 10 C-6.67 9.01 -6.34 8.02 -6 7 C-4.68 7 -3.36 7 -2 7 C-2.33 6.01 -2.66 5.02 -3 4 C-2.01 3.67 -1.02 3.34 0 3 C0 2.01 0 1.02 0 0 Z " fill="#BE9051" transform="translate(354,117)"/>
<path d="M0 0 C2.64 0.33 5.28 0.66 8 1 C8.33 3.31 8.66 5.62 9 8 C6 9 6 9 3.9375 8.3125 C1.63781111 6.75464624 0.94224634 5.59117744 0 3 C0 2.01 0 1.02 0 0 Z " fill="#F6B16D" transform="translate(252,107)"/>
<path d="M0 0 C0 3.59857954 -0.95830515 5.09451118 -3 8 C-3.66 8 -4.32 8 -5 8 C-5.2475 8.61875 -5.495 9.2375 -5.75 9.875 C-7.22770762 12.38710296 -8.43955177 12.76107344 -11 14 C-11.33 14.99 -11.66 15.98 -12 17 C-12.99 16.34 -13.98 15.68 -15 15 C-10.05 10.05 -5.1 5.1 0 0 Z " fill="#C29063" transform="translate(271,72)"/>
<path d="M0 0 C0.99 0 1.98 0 3 0 C3.66 0.66 4.32 1.32 5 2 C4.67028521 5.29714793 4.3773161 6.6226839 2 9 C0.68 9 -0.64 9 -2 9 C-2.125 5.625 -2.125 5.625 -2 2 C-1.34 1.34 -0.68 0.68 0 0 Z " fill="#F0B375" transform="translate(337,129)"/>
<path d="M0 0 C4.52615993 3.67832017 8.39424999 7.41086363 12 12 C10.68 12.33 9.36 12.66 8 13 C7.67 11.35 7.34 9.7 7 8 C5.02 8.33 3.04 8.66 1 9 C1.0928125 7.824375 1.0928125 7.824375 1.1875 6.625 C1.125625 5.75875 1.06375 4.8925 1 4 C0.01 3.34 -0.98 2.68 -2 2 C-1.34 2 -0.68 2 0 2 C0 1.34 0 0.68 0 0 Z " fill="#CE9863" transform="translate(359,86)"/>
<path d="M0 0 C0.66 0.66 1.32 1.32 2 2 C0.35 5.96 -1.3 9.92 -3 14 C-3.99 14 -4.98 14 -6 14 C-6.33 13.34 -6.66 12.68 -7 12 C-6.07421875 9.43359375 -6.07421875 9.43359375 -4.6875 6.4375 C-4.23761719 5.44621094 -3.78773438 4.45492188 -3.32421875 3.43359375 C-2 1 -2 1 0 0 Z " fill="#E8E7E8" transform="translate(381,296)"/>
<path d="M0 0 C1.1446875 0.0928125 1.1446875 0.0928125 2.3125 0.1875 C1.9825 1.8375 1.6525 3.4875 1.3125 5.1875 C-0.3375 4.8575 -1.9875 4.5275 -3.6875 4.1875 C-3.3575 5.5075 -3.0275 6.8275 -2.6875 8.1875 C-5.6575 7.6925 -5.6575 7.6925 -8.6875 7.1875 C-9.0175 6.1975 -9.3475 5.2075 -9.6875 4.1875 C-9.089375 4.084375 -8.49125 3.98125 -7.875 3.875 C-5.60866717 3.36265064 -5.60866717 3.36265064 -4.25 1.625 C-2.6875 0.1875 -2.6875 0.1875 0 0 Z " fill="#F9B16F" transform="translate(357.6875,112.8125)"/>
<path d="M0 0 C0.33 0.66 0.66 1.32 1 2 C1.66 2 2.32 2 3 2 C2.01 5.3 1.02 8.6 0 12 C-1.32 12 -2.64 12 -4 12 C-3.67 9.36 -3.34 6.72 -3 4 C-2.34 4 -1.68 4 -1 4 C-0.67 2.68 -0.34 1.36 0 0 Z " fill="#ECECEC" transform="translate(356,332)"/>
<path d="M0 0 C0.66 0 1.32 0 2 0 C3.06442186 6.21392221 3.1381926 11.01306073 1 17 C0.01 17.33 -0.98 17.66 -2 18 C-1.34 12.06 -0.68 6.12 0 0 Z " fill="#F7F7F7" transform="translate(274,309)"/>
<path d="M0 0 C-0.5028359 3.68746328 -0.99846531 6.82109196 -3 10 C-3.99 10.495 -3.99 10.495 -5 11 C-5.66 10.67 -6.32 10.34 -7 10 C-7 7.69 -7 5.38 -7 3 C-6.34 3 -5.68 3 -5 3 C-5 2.34 -5 1.68 -5 1 C-3 0 -3 0 0 0 Z " fill="#FAB16D" transform="translate(328,58)"/>
<path d="M0 0 C2.98095703 -0.34057617 2.98095703 -0.34057617 6.7578125 -0.29296875 C7.42086395 -0.28872391 8.08391541 -0.28447906 8.76705933 -0.28010559 C10.88678441 -0.26329971 13.00556188 -0.22564701 15.125 -0.1875 C16.56118419 -0.17245549 17.99738328 -0.15876668 19.43359375 -0.14648438 C22.95603764 -0.1133909 26.47792636 -0.0615968 30 0 C29.67 0.66 29.34 1.32 29 2 C27.81241089 1.96072388 27.81241089 1.96072388 26.60083008 1.9206543 C23.00492283 1.81655878 19.40933269 1.751631 15.8125 1.6875 C14.56662109 1.64560547 13.32074219 1.60371094 12.03710938 1.56054688 C5.79694934 1.25403971 5.79694934 1.25403971 0.02099609 3.13525391 C-1.53381337 4.59742699 -1.53381337 4.59742699 -3 7 C-2.38722388 4.03824877 -1.74627478 2.61941217 0 0 Z " fill="#BDBDBD" transform="translate(350,249)"/>
<path d="M0 0 C0.66 0.33 1.32 0.66 2 1 C2.99 0.67 3.98 0.34 5 0 C5.99 0.33 6.98 0.66 8 1 C8.6875 3.0625 8.6875 3.0625 9 5 C8.360625 5.12375 7.72125 5.2475 7.0625 5.375 C6.0415625 5.684375 6.0415625 5.684375 5 6 C4.67 6.66 4.34 7.32 4 8 C4 7.34 4 6.68 4 6 C3.01 5.67 2.02 5.34 1 5 C-0.1875 2.9375 -0.1875 2.9375 -1 1 C-0.67 0.67 -0.34 0.34 0 0 Z " fill="#F8B16F" transform="translate(342,76)"/>
<path d="M0 0 C0.66 0 1.32 0 2 0 C2 0.66 2 1.32 2 2 C3.98 2 5.96 2 8 2 C7.01 3.32 6.02 4.64 5 6 C8.465 5.505 8.465 5.505 12 5 C8.96474514 7.02350324 7.80573798 7.32124018 4.3125 7.625 C3.50425781 7.69976562 2.69601563 7.77453125 1.86328125 7.8515625 C0.94095703 7.92503906 0.94095703 7.92503906 0 8 C0 5.36 0 2.72 0 0 Z " fill="#9C9B9C" transform="translate(244,327)"/>
<path d="M0 0 C0.75 1.5625 0.75 1.5625 1 4 C0.00926789 6.59288748 -1.26221164 8.83488663 -3 11 C-5.25 11.9375 -5.25 11.9375 -7 12 C-5.77759242 7.95665186 -4.39561694 4.49360803 -2 1 C-1.34 0.67 -0.68 0.34 0 0 Z " fill="#F1F1F1" transform="translate(372,304)"/>
<path d="M0 0 C0.99 0 1.98 0 3 0 C2.51171875 6.0546875 2.51171875 6.0546875 2 8 C1.01 8.66 0.02 9.32 -1 10 C-1.66 9.34 -2.32 8.68 -3 8 C-3.99 8 -4.98 8 -6 8 C-6 7.34 -6 6.68 -6 6 C-4.34997172 4.64613064 -2.6825613 3.31321858 -1 2 C-0.67 1.34 -0.34 0.68 0 0 Z " fill="#F7AE6C" transform="translate(266,80)"/>
<path d="M0 0 C1.98 0.495 1.98 0.495 4 1 C3.67 2.65 3.34 4.3 3 6 C4.32 5.34 5.64 4.68 7 4 C7.66 4.66 8.32 5.32 9 6 C8.01 6.33 7.02 6.66 6 7 C6 7.99 6 8.98 6 10 C4.68 9.34 3.36 8.68 2 8 C2 7.01 2 6.02 2 5 C1.01 4.67 0.02 4.34 -1 4 C-0.67 2.68 -0.34 1.36 0 0 Z " fill="#F9B170" transform="translate(357,89)"/>
<path d="M0 0 C3 2 3 2 3.75 4.5 C4 7 4 7 3 9 C0.6875 9.875 0.6875 9.875 -2 10 C-4.3125 8.0625 -4.3125 8.0625 -6 6 C-4.68 5.67 -3.36 5.34 -2 5 C-2 5.99 -2 6.98 -2 8 C-0.68 8 0.64 8 2 8 C2 7.01 2 6.02 2 5 C1.01 5.33 0.02 5.66 -1 6 C-0.67 4.02 -0.34 2.04 0 0 Z " fill="#B98D61" transform="translate(280,128)"/>
<path d="M0 0 C1.5778125 0.433125 1.5778125 0.433125 3.1875 0.875 C3.1875 2.525 3.1875 4.175 3.1875 5.875 C2.1975 6.37 2.1975 6.37 1.1875 6.875 C1.1875 5.225 1.1875 3.575 1.1875 1.875 C-0.17375 2.5865625 -0.17375 2.5865625 -1.5625 3.3125 C-4.07677949 4.52128821 -6.10818209 5.35493886 -8.8125 5.875 C-4.75096154 -0.15576923 -4.75096154 -0.15576923 0 0 Z " fill="#B68D62" transform="translate(280.8125,66.125)"/>
<path d="M0 0 C3.53571429 0.53571429 3.53571429 0.53571429 5 2 C5.04080783 3.99958364 5.04254356 6.00045254 5 8 C4.34 7.01 3.68 6.02 3 5 C0.41619823 4.74969023 0.41619823 4.74969023 -2 5 C-2 5.66 -2 6.32 -2 7 C-2.66 7 -3.32 7 -4 7 C-2.92598892 4.08482708 -2.22189824 2.22189824 0 0 Z " fill="#C49662" transform="translate(325,54)"/>
<path d="M0 0 C3.34252724 -0.07427838 5.8035914 -0.06546953 9 1 C9 1.99 9 2.98 9 4 C9.66 4 10.32 4 11 4 C11 4.99 11 5.98 11 7 C9.68 7 8.36 7 7 7 C6.67 6.34 6.34 5.68 6 5 C5.01 4.67 4.02 4.34 3 4 C1.3125 1.9375 1.3125 1.9375 0 0 Z " fill="#F8B273" transform="translate(271,129)"/>
<path d="M0 0 C0.33 1.32 0.66 2.64 1 4 C-0.4540625 4.8971875 -0.4540625 4.8971875 -1.9375 5.8125 C-5.23052042 7.71127509 -5.23052042 7.71127509 -6 11 C-7.32 10.67 -8.64 10.34 -10 10 C-6.7 6.7 -3.4 3.4 0 0 Z " fill="#B7885D" transform="translate(255,88)"/>
<path d="M0 0 C2.75 0.25 2.75 0.25 5 1 C3.02 3.31 1.04 5.62 -1 8 C-1.33 7.01 -1.66 6.02 -2 5 C-2.66 4.67 -3.32 4.34 -4 4 C-2.3125 1.9375 -2.3125 1.9375 0 0 Z " fill="#D69963" transform="translate(277,72)"/>
<path d="M0 0 C0.66 0.33 1.32 0.66 2 1 C1.54738642 2.43931117 1.08767021 3.87638999 0.625 5.3125 C0.36976563 6.11300781 0.11453125 6.91351563 -0.1484375 7.73828125 C-1 10 -1 10 -3 13 C-3.4726477 4.80743982 -3.4726477 4.80743982 -1.5 1.4375 C-0.7575 0.7259375 -0.7575 0.7259375 0 0 Z " fill="#BC9166" transform="translate(321,76)"/>
<path d="M0 0 C2.97 0.495 2.97 0.495 6 1 C6.33 1.99 6.66 2.98 7 4 C8.49985609 5.66710346 8.49985609 5.66710346 10 7 C9.34 7.66 8.68 8.32 8 9 C6.66368764 7.6905332 5.33102075 6.37734515 4 5.0625 C3.2575 4.33160156 2.515 3.60070312 1.75 2.84765625 C0 1 0 1 0 0 Z " fill="#C18D56" transform="translate(350,89)"/>
<path d="M0 0 C2 3 2 3 1.8125 5.5 C0.9476037 8.1612194 0.21018366 9.32026042 -2 11 C-2.66 11 -3.32 11 -4 11 C-3.52269162 9.5410574 -3.04308958 8.08286504 -2.5625 6.625 C-2.29566406 5.81289062 -2.02882813 5.00078125 -1.75390625 4.1640625 C-1 2 -1 2 0 0 Z " fill="#D09D69" transform="translate(320,62)"/>
<path d="M0 0 C2.31 0.66 4.62 1.32 7 2 C7.33 3.98 7.66 5.96 8 8 C6.85073734 7.04578192 5.70569459 6.08647955 4.5625 5.125 C3.92441406 4.59132813 3.28632813 4.05765625 2.62890625 3.5078125 C1 2 1 2 0 0 Z " fill="#C18B63" transform="translate(254,114)"/>
<path d="M0 0 C2.475 0.99 2.475 0.99 5 2 C5 2.66 5 3.32 5 4 C3 5.625 3 5.625 1 7 C0.34 6.67 -0.32 6.34 -1 6 C-1.042721 4.33388095 -1.04063832 2.66617115 -1 1 C-0.67 0.67 -0.34 0.34 0 0 Z " fill="#F8B471" transform="translate(354,84)"/>
<path d="M0 0 C0.99 0 1.98 0 3 0 C3.66 0.99 4.32 1.98 5 3 C5.66 3 6.32 3 7 3 C7.33 2.34 7.66 1.68 8 1 C7.67 2.32 7.34 3.64 7 5 C5.35 5.33 3.7 5.66 2 6 C1.34 4.02 0.68 2.04 0 0 Z " fill="#858585" transform="translate(349,314)"/>
<path d="M0 0 C0 1.65 0 3.3 0 5 C-0.66 5 -1.32 5 -2 5 C-2.33 4.01 -2.66 3.02 -3 2 C-3.66 2 -4.32 2 -5 2 C-5.33 2.99 -5.66 3.98 -6 5 C-6.66 4.67 -7.32 4.34 -8 4 C-7.25 2.0625 -7.25 2.0625 -6 0 C-3.40292416 -1.05506206 -2.5386068 -1.2693034 0 0 Z " fill="#9B9C9B" transform="translate(375,303)"/>
<path d="M0 0 C0.66 0.66 1.32 1.32 2 2 C1.625 4.625 1.625 4.625 1 7 C0.01 7 -0.98 7 -2 7 C-2.33 5.02 -2.66 3.04 -3 1 C-2.01 0.67 -1.02 0.34 0 0 Z " fill="#F9B56B" transform="translate(290,138)"/>
<path d="M0 0 C0.33 0.66 0.66 1.32 1 2 C0.22265625 4.1640625 0.22265625 4.1640625 -0.9375 6.625 C-1.31777344 7.44226563 -1.69804687 8.25953125 -2.08984375 9.1015625 C-2.39019531 9.72804688 -2.69054687 10.35453125 -3 11 C-3.33 11 -3.66 11 -4 11 C-4 8.69 -4 6.38 -4 4 C-3.34 4 -2.68 4 -2 4 C-1.34 2.68 -0.68 1.36 0 0 Z " fill="#AF825D" transform="translate(305,117)"/>
<path d="M0 0 C0.33 0 0.66 0 1 0 C0.49202991 4.3177458 -0.19682779 8.03302114 -2 12 C-3.125 10.25 -3.125 10.25 -4 8 C-3.25 6 -3.25 6 -2 4 C-1.62875 3.2575 -1.2575 2.515 -0.875 1.75 C-0.58625 1.1725 -0.2975 0.595 0 0 Z " fill="#E5AA76" transform="translate(328,59)"/>
<path d="M0 0 C0.33 0 0.66 0 1 0 C1 1.65 1 3.3 1 5 C2.98 4.67 4.96 4.34 7 4 C6.01 5.485 6.01 5.485 5 7 C3.35 6.67 1.7 6.34 0 6 C-0.38218767 4.34385343 -0.71395102 2.67542976 -1 1 C-0.67 0.67 -0.34 0.34 0 0 Z " fill="#B68F6A" transform="translate(287,140)"/>
<path d="M0 0 C2.38253561 1.19126781 3.12188876 2.38694426 4.625 4.5625 C5.07101562 5.20316406 5.51703125 5.84382813 5.9765625 6.50390625 C6.31429688 6.99761719 6.65203125 7.49132812 7 8 C4.625 7.6875 4.625 7.6875 2 7 C0 4 0 4 0 0 Z " fill="#B68A54" transform="translate(253,100)"/>
<path d="M0 0 C0.99 0 1.98 0 3 0 C1.60667426 3.36720387 0.0210714 4.9859524 -3 7 C-3.33 6.01 -3.66 5.02 -4 4 C-3.67 3.34 -3.34 2.68 -3 2 C-2.34 2 -1.68 2 -1 2 C-0.67 1.34 -0.34 0.68 0 0 Z " fill="#D99F6F" transform="translate(271,80)"/>
<path d="M0 0 C2.31 1.98 4.62 3.96 7 6 C5.68 6.33 4.36 6.66 3 7 C0 3.375 0 3.375 0 0 Z " fill="#A68359" transform="translate(273,121)"/>
<path d="M0 0 C0.66 0 1.32 0 2 0 C2.33 2.31 2.66 4.62 3 7 C2.01 7.495 2.01 7.495 1 8 C0.34 5.69 -0.32 3.38 -1 1 C-0.67 0.67 -0.34 0.34 0 0 Z " fill="#F6B171" transform="translate(267,120)"/>
<path d="M0 0 C1.32 0.99 2.64 1.98 4 3 C3.67 3.99 3.34 4.98 3 6 C2.01 6.33 1.02 6.66 0 7 C-1.04449911 3.86650268 -0.93423645 3.01031744 0 0 Z " fill="#FCB26A" transform="translate(302,109)"/>
<path d="M0 0 C1.65 0.33 3.3 0.66 5 1 C4.67 1.99 4.34 2.98 4 4 C2.35 4 0.7 4 -1 4 C-0.67 2.68 -0.34 1.36 0 0 Z " fill="#F1F1F2" transform="translate(243,268)"/>
<path d="M0 0 C0 1.32 0 2.64 0 4 C-1.65 4.33 -3.3 4.66 -5 5 C-5 4.01 -5 3.02 -5 2 C-2 0 -2 0 0 0 Z " fill="#E6E6E6" transform="translate(375,314)"/>
<path d="M0 0 C-0.33 1.32 -0.66 2.64 -1 4 C-1.66 4 -2.32 4 -3 4 C-3 3.01 -3 2.02 -3 1 C-4.32 1.33 -5.64 1.66 -7 2 C-7 1.34 -7 0.68 -7 0 C-4.3333581 -1.33332095 -2.83319697 -0.67102033 0 0 Z " fill="#736B6C" transform="translate(378,287)"/>
<path d="M0 0 C0.66 0.66 1.32 1.32 2 2 C1.625 4.625 1.625 4.625 1 7 C0.01 7.33 -0.98 7.66 -2 8 C-1.47731534 5.23723823 -0.89130413 2.6739124 0 0 Z " fill="#A57B50" transform="translate(312,79)"/>
<path d="M0 0 C0.66 0.66 1.32 1.32 2 2 C1.34 3.32 0.68 4.64 0 6 C-0.99 5.67 -1.98 5.34 -3 5 C-2.625 3.0625 -2.625 3.0625 -2 1 C-1.34 0.67 -0.68 0.34 0 0 Z " fill="#F7F7F7" transform="translate(381,296)"/>
<path d="M0 0 C0.99 0.33 1.98 0.66 3 1 C2.67 2.65 2.34 4.3 2 6 C1.01 5.67 0.02 5.34 -1 5 C-0.67 3.35 -0.34 1.7 0 0 Z " fill="#F6AE6B" transform="translate(339,130)"/>
<path d="M0 0 C0.99 0 1.98 0 3 0 C2.34 1.65 1.68 3.3 1 5 C-0.32 4.67 -1.64 4.34 -3 4 C-1.6875 2 -1.6875 2 0 0 Z " fill="#F7B26F" transform="translate(362,103)"/>
</svg>
